# xmcd
#
# Track frame offsets:
#	182
#	15597
#	28925
#	42945
#	57095
#	67800
#	82442
#	98502
#	115382
#	128567
#
# Disc length: 1888 seconds
#
# Revision: 0
# Processed by: cddbd v1.5.2PL0 Copyright (c) Steve Scherf et al.
# Submitted via: audiograbber 1.83.01
#
DISCID=7d075e0a
DTITLE=Desert Rose Band, The - The Desert Rose Band
DYEAR=1987
DGENRE=Country
TTITLE0=One step forward
TTITLE1=Love reunited
TTITLE2=He's back and I'm blue
TTITLE3=Leave this town
TTITLE4=Time between
TTITLE5=Ashes of love
TTITLE6=One that got away
TTITLE7=Once more
TTITLE8=Glass hearts
TTITLE9=Hard times
EXTD=
EXTT0=
EXTT1=
EXTT2=
EXTT3=
EXTT4=
EXTT5=
EXTT6=
EXTT7=
EXTT8=
EXTT9=
PLAYORDER=
